<svg width="45" height="38" viewBox="0 0 45 38" fill="none" xmlns="http://www.w3.org/2000/svg">
<path fill-rule="evenodd" clip-rule="evenodd" d="M4.15796 18.1514C3.10986 16.559 2.5 14.6526 2.5 12.6037C2.5 7.02358 7.02358 2.5 12.6037 2.5C16.924 2.5 20.6109 5.21156 22.0556 9.02564C23.5002 5.21156 27.1871 2.5 31.5074 2.5C37.0875 2.5 41.6111 7.02358 41.6111 12.6037C41.6111 14.6524 41.0013 16.5588 39.9534 18.1511C36.1482 24.5932 26.1101 32.3802 22.0556 34.6037C18.0011 32.3803 7.96328 24.5934 4.15796 18.1514Z" fill="white" fill-opacity="0.3"/>
<path d="M4.15796 18.1514L6.31047 16.8799C6.28989 16.8451 6.26847 16.8107 6.24622 16.7769L4.15796 18.1514ZM22.0556 9.02564L19.7176 9.91115C20.0857 10.8829 21.0165 11.5256 22.0556 11.5256C23.0947 11.5256 24.0254 10.8829 24.3935 9.91115L22.0556 9.02564ZM39.9534 18.1511L37.8651 16.7767C37.8428 16.8105 37.8214 16.8448 37.8008 16.8796L39.9534 18.1511ZM22.0556 34.6037L20.8535 36.7957C21.6023 37.2064 22.5089 37.2064 23.2576 36.7958L22.0556 34.6037ZM0 12.6037C0 15.1559 0.761257 17.538 2.06971 19.5259L6.24622 16.7769C5.45847 15.5801 5 14.1493 5 12.6037H0ZM12.6037 0C5.64287 0 0 5.64287 0 12.6037H5C5 8.40429 8.40429 5 12.6037 5V0ZM24.3935 8.14013C22.5929 3.38633 17.9969 0 12.6037 0V5C15.8511 5 18.6289 7.03678 19.7176 9.91115L24.3935 8.14013ZM31.5074 0C26.1142 0 21.5182 3.38633 19.7176 8.14013L24.3935 9.91115C25.4822 7.03678 28.2601 5 31.5074 5V0ZM44.1111 12.6037C44.1111 5.64287 38.4682 0 31.5074 0V5C35.7068 5 39.1111 8.40429 39.1111 12.6037H44.1111ZM42.0417 19.5255C43.35 17.5376 44.1111 15.1557 44.1111 12.6037H39.1111C39.1111 14.1491 38.6527 15.5799 37.8651 16.7767L42.0417 19.5255ZM23.2576 36.7958C25.4966 35.5679 29.1689 32.9432 32.7364 29.8476C36.2857 26.768 39.994 22.998 42.1059 19.4225L37.8008 16.8796C36.1076 19.7463 32.8943 23.0909 29.4596 26.0711C26.0432 29.0355 22.6691 31.416 20.8535 32.4117L23.2576 36.7958ZM23.2576 32.4117C21.4421 31.4161 18.0681 29.0356 14.6517 26.0713C11.2171 23.0911 8.0038 19.7466 6.31047 16.8799L2.00545 19.4229C4.11745 22.9983 7.82567 26.7682 11.3749 29.8478C14.9424 32.9433 18.6145 35.5679 20.8535 36.7957L23.2576 32.4117Z" fill="white"/>
</svg>
